<?xml version="1.0" encoding="UTF-8" standalone="no"?>
<!-- Generator: Adobe Illustrator 17.0.0, SVG Export Plug-In . SVG Version: 6.00 Build 0)  -->

<svg
   xmlns:dc="http://purl.org/dc/elements/1.1/"
   xmlns:cc="http://creativecommons.org/ns#"
   xmlns:rdf="http://www.w3.org/1999/02/22-rdf-syntax-ns#"
   xmlns:svg="http://www.w3.org/2000/svg"
   xmlns="http://www.w3.org/2000/svg"
   xmlns:sodipodi="http://sodipodi.sourceforge.net/DTD/sodipodi-0.dtd"
   xmlns:inkscape="http://www.inkscape.org/namespaces/inkscape"
   version="1.1"
   id="Layer_1"
   x="0px"
   y="0px"
   width="154.04944"
   height="162.6655"
   viewBox="0 0 154.04944 162.6655"
   enable-background="new 0 0 150 150"
   xml:space="preserve"
   inkscape:version="0.91 r13725"
   sodipodi:docname="icon.svg"><metadata
     id="metadata11"><rdf:RDF><cc:Work
         rdf:about=""><dc:format>image/svg+xml</dc:format><dc:type
           rdf:resource="http://purl.org/dc/dcmitype/StillImage" /><dc:title></dc:title></cc:Work></rdf:RDF></metadata><defs
     id="defs9"><filter
       inkscape:label="filter1"
       id="filter6084"
       style="color-interpolation-filters:sRGB" /><filter
       inkscape:label="filter1"
       id="filter6084-3"
       style="color-interpolation-filters:sRGB" /></defs><sodipodi:namedview
     pagecolor="#ffffff"
     bordercolor="#666666"
     borderopacity="1"
     objecttolerance="10"
     gridtolerance="10"
     guidetolerance="10"
     inkscape:pageopacity="0"
     inkscape:pageshadow="2"
     inkscape:window-width="1600"
     inkscape:window-height="838"
     id="namedview7"
     showgrid="false"
     fit-margin-top="0"
     fit-margin-left="0"
     fit-margin-right="0"
     fit-margin-bottom="0"
     inkscape:zoom="1.1125147"
     inkscape:cx="-82.332519"
     inkscape:cy="91.327672"
     inkscape:window-x="0"
     inkscape:window-y="27"
     inkscape:window-maximized="1"
     inkscape:current-layer="Layer_1" /><g
     transform="translate(323.35893,-488.77719)"
     id="layer1"
     inkscape:label="Layer 1"
     style="opacity:0.93999999"><g
       transform="matrix(0.19067014,0,0,0.19284509,-351.6735,453.75487)"
       id="text5940"
       style="font-style:normal;font-weight:normal;font-size:624.96429443px;line-height:125%;font-family:Sans;letter-spacing:0px;word-spacing:0px;fill:#000000;fill-opacity:1;stroke:none;stroke-width:1px;stroke-linecap:butt;stroke-linejoin:miter;stroke-opacity:1"><path
         inkscape:connector-curvature="0"
         id="path5951"
         d="m 228.93359,197.72266 c -8.37593,0 -18.79694,2.27879 -27.48828,8.79882 -8.69133,6.52004 -13.97677,16.23173 -16.18945,24.5293 -2.31023,8.66338 -3.58789,17.5308 -3.58789,26.4375 0,18.45583 1.89637,37.05799 5.625,55.70117 a 32.271514,32.271514 0 0 0 0.20117,0.92774 c 3.21947,13.95105 4.79688,27.72118 4.79688,41.49023 0,17.55585 -0.97542,34.40519 -2.89844,50.5586 l 0.0117,-0.0918 c -2.04447,16.76462 -3.66116,34.28241 -4.92188,52.44922 a 32.271514,32.271514 0 0 0 -0.6914,3.70117 c -1.38147,11.05183 2.20699,23.65623 8.26171,32.13281 a 32.271514,32.271514 0 0 0 1.75782,2.24414 c 8.26013,9.63685 22.80106,15.64258 34.49804,15.64258 7.04562,0 15.51521,-2.16252 22.27344,-6.66797 l -3.4668,2.01172 c 2.62877,-1.31437 5.16894,-2.7408 7.79493,-4.31641 a 32.271514,32.271514 0 0 0 4.71484,-3.44531 c 9.43776,-8.30522 17.60079,-14.57828 24.06445,-18.80859 6.4343,-3.95223 12.37131,-6.56982 17.85547,-8.13672 a 32.271514,32.271514 0 0 0 1.33985,-0.41406 c 6.11251,-2.03751 12.90365,-3.43517 20.55468,-4.07618 9.28043,-0.7404 20.54265,-1.14453 33.61328,-1.14453 14.41306,0 28.5503,2.30714 42.91602,7.09571 14.00121,4.66707 25.97323,11.25331 36.64453,19.98437 a 32.271514,32.271514 0 0 0 0.83203,0.65821 c 10.84498,8.29322 19.25104,17.93179 25.91211,29.66796 5.91559,10.42272 8.91797,21.68684 8.91797,35.94336 0,15.74262 -2.99959,29.97811 -9.12109,43.83203 a 32.271514,32.271514 0 0 0 -0.14453,0.33008 c -5.94097,13.86226 -13.92325,25.65957 -24.4043,36.14063 -9.84861,9.8486 -21.51511,17.65535 -35.89258,23.67383 a 32.271514,32.271514 0 0 0 -0.25,0.10546 c -13.40897,5.7467 -27.57052,8.64258 -43.53516,8.64258 -14.42029,0 -27.31817,-2.53698 -39.625,-7.58593 -12.64712,-5.18857 -23.40231,-12.06406 -32.94531,-20.88477 -9.21865,-9.30939 -16.35225,-19.57224 -21.77539,-31.33008 -5.14541,-11.55398 -7.75586,-23.80606 -7.75586,-37.92383 0,-11.59941 -6.92741,-26.2298 -16.63086,-33.95898 -7.52296,-6.09055 -18.42992,-10.8086 -29.38476,-10.8086 -11.11663,0 -23.29108,5.39073 -30.91407,12.67579 -8.8438,8.35084 -13.85351,21.76118 -13.85351,32.09179 0,25.46759 5.10459,50.32258 15.17578,73.48633 a 32.271514,32.271514 0 0 0 0.35156,0.78125 c 10.33749,22.15175 24.38107,41.99462 41.75391,58.8711 17.38159,16.88497 37.68696,30.38953 60.24023,40.19531 a 32.271514,32.271514 0 0 0 0.23047,0.0996 c 23.60499,10.04467 48.99305,15.07422 75.13281,15.07422 27.55653,0 54.34437,-5.52543 79.24219,-16.48047 24.25066,-10.67029 45.89826,-25.29864 64.19141,-43.5918 18.53492,-18.53492 33.38634,-40.0678 44.11914,-63.97266 a 32.271514,32.271514 0 0 0 0.0977,-0.2207 c 10.95436,-24.89626 16.48243,-51.68385 16.48243,-79.24219 0,-27.55056 -6.2127,-53.91309 -18.86328,-77.16992 -11.97181,-22.40915 -28.23514,-41.96584 -48.09961,-57.89062 -19.20229,-15.72267 -41.19671,-27.78564 -65.28321,-36.00782 -24.0334,-8.61661 -48.8172,-13.06445 -73.76172,-13.06445 -21.63857,0 -42.60461,1.80098 -62.83593,5.45117 -4.18847,0.68614 -8.32525,1.70495 -12.46094,2.72852 0.33217,-9.70765 0.69531,-19.42503 0.69531,-29.03516 0,-18.7797 -1.11775,-37.02673 -3.38672,-54.72461 l 0.0937,0.81055 -1.28906,-12.5625 31.06055,0 c 28.90427,0 57.80678,-0.20806 86.71093,-0.62695 a 32.271514,32.271514 0 0 0 0.46876,-0.0117 c 28.43249,-0.82414 57.07791,-1.23633 85.93554,-1.23633 11.40159,0 23.9952,-5.62997 31.56641,-13.20117 8.19924,-8.19922 13.20117,-21.26773 13.20117,-32.18946 0,-10.92173 -5.54344,-25.3591 -15.35938,-33.53906 -7.91915,-6.59928 -19.35131,-10.60351 -29.4082,-10.60351 -28.90427,0 -57.39819,0.20784 -85.47851,0.62695 a 32.271514,32.271514 0 0 0 -0.006,0.002 c -27.33308,0.41415 -54.87635,0.6211 -82.63086,0.6211 -13.84946,0 -27.91684,-0.20515 -42.20117,-0.61328 l 0.0273,0.002 c -14.47247,-0.42566 -28.74704,-0.63867 -42.82227,-0.63867 z"
         style="font-style:normal;font-variant:normal;font-weight:normal;font-stretch:normal;font-family:'Cursive standard';-inkscape-font-specification:'Cursive standard';fill:#94de0a;fill-opacity:1;stroke:#a40000;stroke-width:26.51391029;stroke-miterlimit:4;stroke-dasharray:none"
         transform="translate(-4.2857141,-2.8571452)" /><path
         inkscape:connector-curvature="0"
         id="path6105"
         d="m 475.82227,204.59766 c -84.45639,1.02569 -168.95212,2.32837 -253.39844,0.29492 -14.17418,0.64851 -27.63358,10.29608 -31.19736,24.33395 -6.38168,20.38115 -3.77201,42.07343 -0.92186,62.88079 4.59412,26.48676 9.80007,53.25752 7.37766,80.27442 -1.38901,33.59616 -8.48103,66.89976 -7.62954,100.47764 4.31424,21.51521 32.18152,33.9733 50.75782,21.63085 15.70626,-9.33747 27.65466,-24.38814 45.08984,-30.97461 26.14611,-10.97821 55.35609,-9.54523 83.07214,-8.18955 42.65164,4.59009 84.69896,29.77371 102.75208,69.66221 13.11499,32.55817 4.72124,70.15829 -13.31145,99.12489 -25.71075,40.54295 -76.62178,63.7797 -124.04793,54.6466 -39.5161,-6.74675 -75.50856,-35.45299 -87.05078,-74.42188 -4.24203,-13.02124 -4.86206,-26.82551 -6.10351,-40.30078 -5.82871,-21.44394 -34.42449,-33.84716 -53,-20.57813 -13.20459,8.25689 -18.73085,25.00179 -16.19727,39.93946 3.23982,65.90648 48.62288,126.38884 108.77344,152.39062 55.82194,25.20996 123.68386,19.04632 175.06971,-13.79713 53.79076,-33.16392 91.31384,-94.1052 92.97716,-157.76537 1.47245,-38.76121 -11.65224,-78.48285 -37.33215,-108.20419 -42.20182,-50.63841 -109.54975,-75.84501 -174.54871,-72.2587 -23.67789,0.95391 -47.24709,5.00351 -70.26367,10.95899 3.42427,-36.97366 0.37059,-74.25528 -2.65429,-111.17578 2.43693,-8.32108 12.68819,-8.2434 19.625,-7.10352 66.9171,-0.24765 133.86129,-0.91197 200.74218,-2.72656 22.06265,-3.85288 35.57723,-31.75125 23.88477,-51.17774 -6.35036,-11.47298 -19.59354,-18.33082 -32.46484,-17.9414 z"
         style="font-style:normal;font-variant:normal;font-weight:normal;font-stretch:normal;font-family:'Cursive standard';-inkscape-font-specification:'Cursive standard';fill:none;stroke:#ef5729;stroke-width:26.51391029;stroke-miterlimit:4;stroke-dasharray:none;stroke-opacity:1" /></g></g><circle
     style="color:#000000;clip-rule:nonzero;display:inline;overflow:visible;visibility:visible;opacity:0.93999999;isolation:auto;mix-blend-mode:normal;color-interpolation:sRGB;color-interpolation-filters:linearRGB;solid-color:#000000;solid-opacity:1;fill:#000000;fill-opacity:1;fill-rule:nonzero;stroke:#2e3436;stroke-width:5;stroke-linecap:butt;stroke-linejoin:miter;stroke-miterlimit:4;stroke-dasharray:none;stroke-dashoffset:0;stroke-opacity:1;marker:none;color-rendering:auto;image-rendering:auto;shape-rendering:auto;text-rendering:auto;enable-background:accumulate"
     id="path4177"
     cx="66.987724"
     cy="59.955208"
     r="15.413136" /><path
     d="m 112.99188,159.31419 c 0,0 -4.98529,-7.89452 -8.36135,-11.79182 -3.37606,-3.89729 -14.603755,-9.4646 -18.658089,-12.63556 -4.052237,-3.17025 -9.089618,-8.83335 -13.144109,-11.22489 -4.054492,-2.39154 -16.064583,-5.36397 -16.323078,-7.44084 -0.257798,-2.07547 0.248649,-8.03742 7.894646,-7.56223 7.644596,0.47589 22.114604,3.78107 22.116158,3.00444 0,0 -18.889776,-37.809514 -21.017474,-42.068286 -2.128397,-4.260168 -1.915528,-7.73626 2.560035,-9.963543 4.475561,-2.227285 6.915406,1.096808 8.731972,4.732822 1.816566,3.636013 18.370757,36.770657 18.370757,36.770657 l 3.697692,-1.840174 c 0,0 -7.778308,-15.568954 -8.971911,-17.958055 -1.193605,-2.389101 0.318555,-6.124737 3.232778,-7.575013 2.914223,-1.450275 6.656758,-0.200644 8.317063,3.122594 1.661,3.324635 9.85438,19.724398 9.85438,19.724398 l 3.01915,-1.502495 c 0,0 -6.74585,-13.502402 -8.09572,-16.204277 -1.34917,-2.700481 -1.65618,-6.437414 2.40247,-8.457217 4.05865,-2.019803 6.82529,0.395444 8.60976,3.967228 1.78379,3.570385 9.04866,18.111649 9.04866,18.111649 l 2.73934,-1.363246 c 0,0 -4.93208,-9.871972 -5.55504,-11.118885 -0.62297,-1.246912 -0.67132,-3.686394 2.44996,-5.239715 3.12269,-1.554016 6.50481,0.01264 9.51428,6.03643 3.01017,6.025115 9.91228,19.840288 11.31309,22.644098 1.40148,2.80521 4.65922,36.72143 4.65922,36.72143 l -38.40394,19.1119 z"
     id="path5"
     style="opacity:0.93999999;fill:#e9b96e;stroke:#c17d11;stroke-width:5;stroke-miterlimit:4;stroke-dasharray:none"
     inkscape:connector-curvature="0" /></svg>