<?xml version="1.0" encoding="UTF-8" standalone="no"?>
<!-- Created with Inkscape (http://www.inkscape.org/) -->

<svg
   xmlns:dc="http://purl.org/dc/elements/1.1/"
   xmlns:cc="http://creativecommons.org/ns#"
   xmlns:rdf="http://www.w3.org/1999/02/22-rdf-syntax-ns#"
   xmlns:svg="http://www.w3.org/2000/svg"
   xmlns="http://www.w3.org/2000/svg"
   xmlns:sodipodi="http://sodipodi.sourceforge.net/DTD/sodipodi-0.dtd"
   xmlns:inkscape="http://www.inkscape.org/namespaces/inkscape"
   inkscape:export-ydpi="97.82"
   inkscape:export-xdpi="97.82"
   inkscape:export-filename="/home/lemaigna/src/abc-writer/pics/5-outset.png"
   sodipodi:docname="8-outset.svg"
   inkscape:version="0.91 r13725"
   version="1.1"
   id="svg5392"
   viewBox="0 0 762.44833 931.81148"
   height="262.97791mm"
   width="215.17986mm">
  <defs
     id="defs5394">
    <filter
       style="color-interpolation-filters:sRGB"
       id="filter6084"
       inkscape:label="filter1" />
    <filter
       inkscape:label="filter1"
       id="filter6084-6"
       style="color-interpolation-filters:sRGB" />
  </defs>
  <sodipodi:namedview
     fit-margin-bottom="50"
     fit-margin-right="50"
     fit-margin-left="50"
     fit-margin-top="50"
     inkscape:window-maximized="1"
     inkscape:window-y="27"
     inkscape:window-x="0"
     inkscape:window-height="838"
     inkscape:window-width="1600"
     showgrid="false"
     inkscape:current-layer="text5944"
     inkscape:document-units="px"
     inkscape:cy="544.78486"
     inkscape:cx="586.0824"
     inkscape:zoom="0.49497475"
     inkscape:pageshadow="2"
     inkscape:pageopacity="0.0"
     borderopacity="1.0"
     bordercolor="#666666"
     pagecolor="#ffffff"
     id="base" />
  <metadata
     id="metadata5397">
    <rdf:RDF>
      <cc:Work
         rdf:about="">
        <dc:format>image/svg+xml</dc:format>
        <dc:type
           rdf:resource="http://purl.org/dc/dcmitype/StillImage" />
        <dc:title></dc:title>
      </cc:Work>
    </rdf:RDF>
  </metadata>
  <g
     inkscape:label="Layer 1"
     inkscape:groupmode="layer"
     id="layer1"
     transform="translate(-4.7561463,-43.578771)">
    <g
       style="font-style:normal;font-weight:normal;font-size:624.96429443px;line-height:125%;font-family:Sans;letter-spacing:0px;word-spacing:0px;fill:#94de0a;fill-opacity:1;stroke:#94de0a;stroke-width:1px;stroke-linecap:butt;stroke-linejoin:miter;stroke-opacity:1"
       id="text5944">
      <g
         style="font-style:normal;font-weight:normal;font-size:644.53027344px;line-height:125%;font-family:Sans;letter-spacing:0px;word-spacing:0px;fill:#94de0a;fill-opacity:1;stroke:none;stroke-width:1px;stroke-linecap:butt;stroke-linejoin:miter;stroke-opacity:1"
         id="text6168">
        <path
           style="font-style:normal;font-variant:normal;font-weight:normal;font-stretch:normal;font-family:'Cursive standard';-inkscape-font-specification:'Cursive standard';fill:#94de0a;fill-opacity:1;stroke:#a40000;stroke-opacity:1;stroke-width:11;stroke-miterlimit:4;stroke-dasharray:none"
           d="m 377.78906,232.04883 c -63.42906,-0.31757 -126.93944,39.61311 -149.26172,99.82226 -19.9425,54.02133 -0.74868,118.92601 43.45313,155.24024 -58.12388,35.57118 -91.02753,110.11655 -73.60388,176.68548 13.06762,45.21853 51.21219,78.97287 93.23279,97.44928 70.76081,32.58667 160.18628,25.39766 221.57926,-23.91966 39.72992,-31.20917 65.17608,-82.76739 58.1805,-133.72096 -5.98384,-50.2832 -40.41276,-94.79231 -85.3457,-117.03711 34.30975,-25.8671 58.27837,-67.98888 55.22205,-111.74484 -2.28945,-58.38544 -44.04601,-111.92189 -98.91737,-130.89188 -20.51335,-7.96191 -42.5319,-12.04386 -64.53906,-11.88281 z m 1.1543,65.75976 c 40.4397,-0.77355 82.45581,24.9413 93.92969,64.99024 7.85922,29.11676 -8.05492,60.98152 -33.70448,75.89943 -20.01738,14.59326 -45.46308,22.15272 -69.94685,18.28527 -28.15526,-1.67095 -56.371,-15.13106 -70.90941,-39.79521 -14.42148,-22.98727 -15.77286,-54.73763 0.18607,-77.48279 17.23711,-26.70563 49.36665,-41.57268 80.44498,-41.89694 z m 23.08398,228.55274 c 36.40204,5.87952 73.62205,23.16232 93.60547,55.5625 18.14674,30.42231 10.96439,72.18608 -15.04778,96.00113 -32.56731,32.90969 -82.12828,43.14395 -126.49519,34.68637 -34.10669,-6.50548 -68.56667,-24.60748 -86.96093,-55.31641 -15.82919,-32.60206 -3.6109,-72.50213 20.18359,-98.0957 18.95177,-20.44509 47.15367,-32.17203 74.69531,-29.88281 13.39738,-0.0263 26.72347,-2.43291 40.01953,-2.95508 z"
           id="path6205"
           inkscape:connector-curvature="0" />
        <path
           style="font-style:normal;font-variant:normal;font-weight:normal;font-stretch:normal;font-family:'Cursive standard';-inkscape-font-specification:'Cursive standard';fill:none;fill-opacity:1;stroke:#ef5729;stroke-width:11;stroke-miterlimit:4;stroke-dasharray:none;stroke-opacity:1"
           d="m 374.93945,242.05078 c -61.25475,0.60097 -122.14781,41.97863 -139.6759,101.63343 -15.2122,53.24602 8.56994,114.40597 54.64465,144.67907 -60.85296,29.66138 -98.26241,102.97727 -82.48125,169.47187 10.01171,40.42001 42.50626,71.45653 78.6191,89.91405 68.68812,35.65986 158.25195,30.77929 219.91098,-17.23943 40.61098,-31.12058 65.03961,-85.44893 53.85758,-136.37035 -10.45557,-47.88938 -47.29262,-88.22612 -92.90055,-105.35036 33.1161,-22.01071 60.76448,-56.77402 64.18946,-97.52344 5.23401,-59.2074 -35.0537,-117.27921 -90.1836,-137.45703 -20.94045,-8.21479 -43.51521,-12.01695 -65.98047,-11.75781 z m 5.91797,45.74024 c 45.38527,-0.52644 91.51074,30.68085 102.5,75.8164 7.50332,35.10803 -13.87699,71.854 -45.04725,87.79477 -41.56706,26.24137 -101.17788,21.21011 -136.61486,-13.50766 -22.95463,-23.05962 -31.75387,-59.97435 -18.74414,-90.39258 15.75222,-38.11457 58.20666,-60.07739 97.90625,-59.71093 z m 22.38867,228.88281 c 38.26141,5.24159 75.9231,23.88352 98.39453,56.11719 16.63153,23.86717 18.00563,56.23171 6.67503,82.36801 -7.90784,19.56743 -23.20388,35.60835 -41.22734,46.45776 -59.8973,38.82712 -146.2405,29.58724 -195.87277,-21.85418 -16.88274,-18.19194 -24.65324,-44.12649 -20.08663,-68.54386 6.73117,-47.26111 47.71696,-88.31081 95.8125,-91.78906 17.40907,-0.96513 35.22074,-0.66409 52.68694,-2.89457 1.21307,-0.0509 2.41997,-0.10727 3.61774,0.13871 z"
           id="path6275"
           inkscape:connector-curvature="0" />
      </g>
      <text
         sodipodi:linespacing="125%"
         id="text6200"
         y="797.14227"
         x="870.96301"
         style="font-style:normal;font-weight:normal;font-size:644.53027344px;line-height:125%;font-family:Sans;letter-spacing:0px;word-spacing:0px;fill:#94de0a;fill-opacity:1;stroke:none;stroke-width:1px;stroke-linecap:butt;stroke-linejoin:miter;stroke-opacity:1"
         xml:space="preserve"><tspan
           style="font-style:normal;font-variant:normal;font-weight:normal;font-stretch:normal;font-family:'Cursive standard';-inkscape-font-specification:'Cursive standard';fill:#94de0a;fill-opacity:1"
           y="797.14227"
           x="870.96301"
           id="tspan6202"
           sodipodi:role="line">8</tspan></text>
    </g>
  </g>
</svg>
