<?xml version="1.0" encoding="UTF-8" standalone="no"?>
<!-- Created with Inkscape (http://www.inkscape.org/) -->

<svg
   xmlns:dc="http://purl.org/dc/elements/1.1/"
   xmlns:cc="http://creativecommons.org/ns#"
   xmlns:rdf="http://www.w3.org/1999/02/22-rdf-syntax-ns#"
   xmlns:svg="http://www.w3.org/2000/svg"
   xmlns="http://www.w3.org/2000/svg"
   xmlns:sodipodi="http://sodipodi.sourceforge.net/DTD/sodipodi-0.dtd"
   xmlns:inkscape="http://www.inkscape.org/namespaces/inkscape"
   inkscape:export-ydpi="97.82"
   inkscape:export-xdpi="97.82"
   inkscape:export-filename="/home/lemaigna/src/abc-writer/pics/5-outset.png"
   sodipodi:docname="h-nooutset.svg"
   inkscape:version="0.91 r13725"
   version="1.1"
   id="svg5392"
   viewBox="0 0 762.44833 931.81148"
   height="262.97791mm"
   width="215.17986mm">
  <defs
     id="defs5394">
    <filter
       style="color-interpolation-filters:sRGB"
       id="filter6084"
       inkscape:label="filter1" />
    <filter
       inkscape:label="filter1"
       id="filter6084-6"
       style="color-interpolation-filters:sRGB" />
  </defs>
  <sodipodi:namedview
     fit-margin-bottom="50"
     fit-margin-right="50"
     fit-margin-left="50"
     fit-margin-top="50"
     inkscape:window-maximized="1"
     inkscape:window-y="27"
     inkscape:window-x="0"
     inkscape:window-height="838"
     inkscape:window-width="1600"
     showgrid="false"
     inkscape:current-layer="text5944"
     inkscape:document-units="px"
     inkscape:cy="468.14563"
     inkscape:cx="668.67104"
     inkscape:zoom="0.49497475"
     inkscape:pageshadow="2"
     inkscape:pageopacity="0.0"
     borderopacity="1.0"
     bordercolor="#666666"
     pagecolor="#ffffff"
     id="base" />
  <metadata
     id="metadata5397">
    <rdf:RDF>
      <cc:Work
         rdf:about="">
        <dc:format>image/svg+xml</dc:format>
        <dc:type
           rdf:resource="http://purl.org/dc/dcmitype/StillImage" />
        <dc:title></dc:title>
      </cc:Work>
    </rdf:RDF>
  </metadata>
  <g
     inkscape:label="Layer 1"
     inkscape:groupmode="layer"
     id="layer1"
     transform="translate(-4.7561463,-43.578771)">
    <g
       style="font-style:normal;font-weight:normal;font-size:624.96429443px;line-height:125%;font-family:Sans;letter-spacing:0px;word-spacing:0px;fill:#94de0a;fill-opacity:1;stroke:#94de0a;stroke-width:1px;stroke-linecap:butt;stroke-linejoin:miter;stroke-opacity:1"
       id="text5944">
      <g
         style="font-style:normal;font-weight:normal;font-size:594.4239502px;line-height:125%;font-family:Sans;letter-spacing:0px;word-spacing:0px;fill:#94de0a;fill-opacity:1;stroke:none;stroke-width:1px;stroke-linecap:butt;stroke-linejoin:miter;stroke-opacity:1"
         id="text6200">
        <path
           style="font-style:normal;font-variant:normal;font-weight:normal;font-stretch:normal;font-family:'Cursive standard';-inkscape-font-specification:'Cursive standard';fill:#94de0a;fill-opacity:1"
           d="m 370.56641,221.64453 c -24.55258,0.0396 -44.95121,18.48028 -56.29883,38.87891 -26.47506,46.7977 -33.49962,101.28891 -38.73629,153.93103 -6.01881,81.2579 -2.75802,162.79899 -2.46995,244.17621 1.654,41.1708 3.15868,82.41762 6.66132,123.45526 3.75949,16.53549 21.34563,28.75741 38.1875,25.02148 17.16805,-2.78079 30.80641,-19.57062 29.07475,-37.06624 0.26897,-22.41888 -3.39056,-44.66046 -3.48491,-67.02946 1.01365,-9.03283 8.05913,-15.7624 11.18037,-24.10791 8.66713,-17.36496 16.54617,-35.99192 32.01104,-48.46436 8.9133,1.36242 10.77091,12.67926 10.51384,20.15896 2.09928,39.06059 -5.37684,80.11295 8.87678,117.72971 6.61796,17.3715 20.81259,32.5219 39.40235,36.61524 21.16919,5.64533 44.07751,-1.29117 60.62364,-15.10077 27.81794,-21.2003 45.60266,-52.4412 60.85174,-83.25123 5.06937,-11.77786 11.29657,-26.18412 4.64962,-38.59527 -9.82984,-18.96639 -39.39183,-25.72557 -54.57618,-9.38281 -19.33487,24.09603 -25.96561,57.05649 -50.1875,77.4043 -2.89412,-25.99885 -0.16086,-52.4901 -0.78826,-78.72063 0.0389,-25.81251 -5.39415,-53.8625 -24.70978,-72.4864 -7.2006,-7.23554 -15.80498,-13.10435 -25.25782,-16.98047 31.43808,-59.66999 55.66346,-125.79122 53.32033,-194.16687 -1.94667,-46.33969 -14.95672,-94.47703 -46.85036,-129.3989 -13.74821,-13.50244 -32.38208,-23.06699 -51.9934,-22.61978 z m 3.30859,77.41797 c 14.52147,12.09462 18.42275,31.64299 23.16797,49.01172 9.96731,50.37661 -4.44135,101.61896 -23.50914,148.01979 -9.02601,22.02346 -19.69625,43.24663 -31.08461,64.15013 -0.55579,-79.07651 -2.73771,-159.61346 20.12109,-236.17969 2.9249,-8.70075 6.22147,-17.36073 11.01758,-25.22461 l 0.28711,0.22266 z"
           id="path6326"
           inkscape:connector-curvature="0" />
      </g>
    </g>
  </g>
</svg>
