<?xml version="1.0" encoding="UTF-8" standalone="no"?>
<!-- Created with Inkscape (http://www.inkscape.org/) -->

<svg
   xmlns:dc="http://purl.org/dc/elements/1.1/"
   xmlns:cc="http://creativecommons.org/ns#"
   xmlns:rdf="http://www.w3.org/1999/02/22-rdf-syntax-ns#"
   xmlns:svg="http://www.w3.org/2000/svg"
   xmlns="http://www.w3.org/2000/svg"
   xmlns:sodipodi="http://sodipodi.sourceforge.net/DTD/sodipodi-0.dtd"
   xmlns:inkscape="http://www.inkscape.org/namespaces/inkscape"
   inkscape:export-ydpi="97.82"
   inkscape:export-xdpi="97.82"
   inkscape:export-filename="/home/lemaigna/src/abc-writer/pics/5-outset.png"
   sodipodi:docname="h-wire.svg"
   inkscape:version="0.91 r13725"
   version="1.1"
   id="svg5392"
   viewBox="0 0 762.44833 931.81148"
   height="262.97791mm"
   width="215.17986mm">
  <defs
     id="defs5394">
    <filter
       style="color-interpolation-filters:sRGB"
       id="filter6084"
       inkscape:label="filter1" />
    <filter
       inkscape:label="filter1"
       id="filter6084-6"
       style="color-interpolation-filters:sRGB" />
  </defs>
  <sodipodi:namedview
     fit-margin-bottom="50"
     fit-margin-right="50"
     fit-margin-left="50"
     fit-margin-top="50"
     inkscape:window-maximized="1"
     inkscape:window-y="27"
     inkscape:window-x="0"
     inkscape:window-height="838"
     inkscape:window-width="1600"
     showgrid="false"
     inkscape:current-layer="text5944"
     inkscape:document-units="px"
     inkscape:cy="468.14563"
     inkscape:cx="668.67104"
     inkscape:zoom="0.49497475"
     inkscape:pageshadow="2"
     inkscape:pageopacity="0.0"
     borderopacity="1.0"
     bordercolor="#666666"
     pagecolor="#ffffff"
     id="base" />
  <metadata
     id="metadata5397">
    <rdf:RDF>
      <cc:Work
         rdf:about="">
        <dc:format>image/svg+xml</dc:format>
        <dc:type
           rdf:resource="http://purl.org/dc/dcmitype/StillImage" />
        <dc:title></dc:title>
      </cc:Work>
    </rdf:RDF>
  </metadata>
  <g
     inkscape:label="Layer 1"
     inkscape:groupmode="layer"
     id="layer1"
     transform="translate(-4.7561463,-43.578771)">
    <g
       style="font-style:normal;font-weight:normal;font-size:624.96429443px;line-height:125%;font-family:Sans;letter-spacing:0px;word-spacing:0px;fill:#94de0a;fill-opacity:1;stroke:#94de0a;stroke-width:1px;stroke-linecap:butt;stroke-linejoin:miter;stroke-opacity:1"
       id="text5944">
      <g
         style="font-style:normal;font-weight:normal;font-size:594.4239502px;line-height:125%;font-family:Sans;letter-spacing:0px;word-spacing:0px;fill:#94de0a;fill-opacity:1;stroke:none;stroke-width:1px;stroke-linecap:butt;stroke-linejoin:miter;stroke-opacity:1"
         id="text6200">
        <path
           style="font-style:normal;font-variant:normal;font-weight:normal;font-stretch:normal;font-family:'Cursive standard';-inkscape-font-specification:'Cursive standard';fill:#94de0a;fill-opacity:1"
           d="m 371.11719,249.75 c -15.2451,-0.21174 -25.3639,13.47376 -32.80301,25.02005 -20.06764,35.5421 -26.8583,76.60575 -32.51134,116.49226 -8.4179,75.12156 -5.00118,150.84852 -5.50697,226.26884 0.20403,44.47504 2.48522,88.9082 5.50736,133.26361 0.48959,8.99456 -0.74245,19.0301 2.67724,27.31657 5.50455,4.51757 12.79582,-3.15874 10.4043,-8.96875 -0.42769,-25.75199 -3.16283,-51.42675 -4.30079,-77.10938 19.28678,-27.63486 28.28418,-62.91657 55.04493,-84.77539 16.44918,-11.35616 40.35711,-2.57036 48.6914,14.73047 11.35738,20.51272 6.09089,44.44134 7.15966,66.91594 -0.0535,23.62235 -1.61372,48.33557 7.10011,70.78328 4.83386,11.59145 16.71557,20.81437 29.71484,19.03516 21.99636,-1.61634 37.92402,-19.47592 50.56938,-35.80382 14.40706,-18.64111 26.08555,-39.44957 33.96578,-61.67275 -2.82224,-6.16669 -12.8391,-4.14165 -13.38867,2.44922 -15.64211,27.45308 -27.40077,59.4399 -54.05274,78.35157 -10.55529,6.58349 -27.35614,7.7007 -34.36719,-4.44141 -9.79879,-15.74601 -6.40914,-35.1123 -7.5371,-52.69727 -0.38271,-26.82015 3.1959,-54.33991 -3.6211,-80.625 -6.86233,-20.53301 -27.84697,-35.875 -49.77539,-33.98047 -4.2707,0.55562 -10.9023,-1.71501 -8.25,-7.24804 2.99186,-7.37321 8.6874,-13.31633 11.55397,-20.80145 29.52703,-55.0207 53.8295,-115.34549 54.30825,-178.66331 -0.43805,-40.20064 -9.62983,-82.03401 -34.33731,-114.54879 -8.94622,-10.71368 -21.78798,-19.53708 -36.24561,-19.29114 z m -0.79102,17.7832 c 21.50129,2.5437 35.18563,22.48495 43.46094,40.73633 20.77113,47.35319 17.10557,101.3976 2.70906,149.95616 -14.34793,48.66584 -36.76459,94.77342 -62.54024,138.46023 -13.32622,22.56514 -24.22485,46.43457 -34.4641,70.48979 -2.47686,6.69694 -1.61642,-6.47992 -2.39359,-9.33846 -4.43266,-60.44632 -2.42735,-121.33685 -2.51638,-181.99707 0.83375,-60.57132 5.81772,-122.50362 28.30095,-179.24252 5.39746,-11.90793 11.87113,-28.58758 27.44336,-29.06446 z"
           id="path6326"
           inkscape:connector-curvature="0" />
      </g>
    </g>
  </g>
</svg>
